<?xml version="1.0" encoding="utf-8"?>
<!-- Generated by IcoMoon.io -->
<!DOCTYPE svg PUBLIC "-//W3C//DTD SVG 1.1//EN" "http://www.w3.org/Graphics/SVG/1.1/DTD/svg11.dtd">
<svg version="1.1" xmlns="http://www.w3.org/2000/svg" xmlns:xlink="http://www.w3.org/1999/xlink" width="48" height="48" viewBox="0 0 48 48">
<g id="icomoon-ignore">
	<line stroke-width="1" x1="" y1="" x2="" y2="" stroke="#449FDB" opacity=""></line>
</g>
	<path d="M16.222 32.778c-0.256 0-0.512-0.098-0.708-0.292-0.39-0.384-0.39-1.024 0-1.414l15.554-15.548c0.388-0.384 1.024-0.384 1.414 0 0.388 0.384 0.388 1.030 0 1.414l-15.554 15.548c-0.194 0.194-0.45 0.292-0.706 0.292z" fill="#000000"></path>
	<path d="M31.778 32.778c-0.256 0-0.512-0.098-0.708-0.292l-15.554-15.55c-0.39-0.384-0.39-1.030 0-1.414s1.024-0.384 1.414 0l15.554 15.548c0.39 0.39 0.39 1.030 0 1.414-0.194 0.196-0.448 0.294-0.706 0.294z" fill="#000000"></path>
	<path d="M24 47c-12.682 0-23-10.32-23-23 0-12.684 10.318-23 23-23s23 10.316 23 23c0 12.68-10.318 23-23 23zM24 3c-11.58 0-21 9.418-21 21 0 11.578 9.42 21 21 21s21-9.422 21-21c0-11.582-9.42-21-21-21z" fill="#000000"></path>
</svg>
