<?xml version="1.0" encoding="utf-8"?>
<!-- Generated by IcoMoon.io -->
<!DOCTYPE svg PUBLIC "-//W3C//DTD SVG 1.1//EN" "http://www.w3.org/Graphics/SVG/1.1/DTD/svg11.dtd">
<svg version="1.1" xmlns="http://www.w3.org/2000/svg" xmlns:xlink="http://www.w3.org/1999/xlink" width="48" height="48" viewBox="0 0 48 48">
<g id="icomoon-ignore">
	<line stroke-width="1" x1="" y1="" x2="" y2="" stroke="#449FDB" opacity=""></line>
</g>
	<path d="M46.91 47.478c-0.014-0.002-0.028-0.002-0.040 0h-45.782c-0.348 0-0.67-0.182-0.852-0.476-0.182-0.292-0.196-0.666-0.040-0.974l22.89-45c0.342-0.672 1.444-0.672 1.786 0l22.778 44.782c0.162 0.18 0.26 0.414 0.26 0.676 0 0.546-0.45 0.992-1 0.992zM2.718 45.478h42.52l-21.26-41.792-21.26 41.792z" fill="#000000"></path>
	<path d="M25.942 35.478h-4.036c-1.072 0-1.306-1.3-1.306-1.804l-0.738-13.604c-0.014-0.264 0.082-0.524 0.262-0.716s0.434-0.302 0.7-0.304l6.13-0.042c0.268-0.002 0.522 0.106 0.708 0.298 0.184 0.192 0.282 0.452 0.268 0.718l-0.684 13.95c0.002 0.576-0.412 1.504-1.304 1.504zM22.59 33.478h2.684l0.642-12.478h-3.998l0.672 12.478z" fill="#000000"></path>
	<path d="M26.782 43.478h-5.384c-0.72 0-1.306-0.588-1.306-1.304v-3.388c0-0.714 0.586-1.3 1.306-1.3h5.384c0.718 0 1.304 0.586 1.304 1.3v3.388c0 0.716-0.586 1.304-1.304 1.304zM22.086 41.478h4v-2h-4v2z" fill="#000000"></path>
</svg>
