<?xml version="1.0" encoding="utf-8"?>
<!-- Generated by IcoMoon.io -->
<!DOCTYPE svg PUBLIC "-//W3C//DTD SVG 1.1//EN" "http://www.w3.org/Graphics/SVG/1.1/DTD/svg11.dtd">
<svg version="1.1" xmlns="http://www.w3.org/2000/svg" xmlns:xlink="http://www.w3.org/1999/xlink" width="48" height="48" viewBox="0 0 48 48">
<g id="icomoon-ignore">
	<line stroke-width="1" x1="" y1="" x2="" y2="" stroke="#449FDB" opacity=""></line>
</g>
	<path d="M27.010 36.042h-6c-0.552 0-1-0.45-1-1v-14c0-0.55 0.448-1 1-1h6c0.552 0 1 0.45 1 1v14c0 0.552-0.448 1-1 1zM22.010 34.042h4v-12h-4v12z" fill="#000000"></path>
	<path d="M24.010 18.11c-2.212 0-4.012-1.796-4.012-4.012s1.8-4.012 4.012-4.012c2.212 0 4.012 1.796 4.012 4.012s-1.8 4.012-4.012 4.012zM24.010 12.086c-1.11 0-2.012 0.902-2.012 2.012s0.902 2.012 2.012 2.012c1.112 0 2.012-0.902 2.012-2.012s-0.9-2.012-2.012-2.012z" fill="#000000"></path>
	<path d="M24 48c-13.234 0-24-10.766-24-24s10.766-24 24-24 24 10.766 24 24-10.766 24-24 24zM24 2c-12.13 0-22 9.874-22 22 0 12.13 9.87 22 22 22 12.128 0 22-9.87 22-22 0-12.128-9.868-22-22-22z" fill="#000000"></path>
</svg>
